<svg width="791" height="746" viewBox="0 0 791 746" fill="none" xmlns="http://www.w3.org/2000/svg">
<path fill-rule="evenodd" clip-rule="evenodd" d="M52.8144 701.151H348.574L202.222 554.8L61.1518 695.871C58.7171 698.306 55.8566 700.061 52.8144 701.151ZM44.4444 649.723V167.818H577.778V487.503L473.682 383.407C465.375 375.1 451.057 374.853 442.379 383.531C441.794 384.116 441.249 384.729 440.743 385.366C440.585 385.514 440.429 385.666 440.275 385.82L268.186 557.909L218.61 508.333C213.733 503.456 206.912 501.305 200.346 502.016C194.985 502.325 189.669 504.5 185.562 508.607L44.4444 649.723ZM411.427 701.151H577.778V550.089L577.643 550.224L458.184 430.764L299.612 589.336L411.427 701.151ZM622.222 684.749L664.916 690.75C689.426 694.194 712.017 677.139 715.457 652.665L789.597 125.124C793.042 100.614 775.986 78.0224 751.512 74.5829L223.972 0.442177C199.462 -3.00249 176.87 14.0539 173.431 38.5274L161.506 123.374H44.7483C19.9973 123.374 0 143.409 0 168.123V700.848C0 725.599 20.0343 745.596 44.7483 745.596H577.474C602.225 745.596 622.222 725.562 622.222 700.848V684.749ZM622.222 639.868L671.403 646.78L745.628 118.637L217.486 44.4119L206.388 123.374H577.474C602.188 123.374 622.222 143.372 622.222 168.123V639.868Z" fill="#82BED8"/>
</svg>
