<svg width="791" height="746" viewBox="0 0 791 746" fill="none" xmlns="http://www.w3.org/2000/svg">
<path fill-rule="evenodd" clip-rule="evenodd" d="M52.8144 701.374H348.574L202.222 555.022L61.1518 696.093C58.7171 698.528 55.8566 700.283 52.8144 701.374ZM44.4444 649.945V168.04H577.778V487.726L473.682 383.629C465.375 375.322 451.057 375.075 442.379 383.754C441.794 384.338 441.249 384.951 440.743 385.588C440.585 385.736 440.429 385.888 440.275 386.042L268.186 558.131L218.61 508.555C213.733 503.679 206.912 501.527 200.346 502.238C194.985 502.547 189.669 504.722 185.562 508.829L44.4444 649.945ZM411.427 701.374H577.778V550.312L577.643 550.446L458.184 430.986L299.612 589.559L411.427 701.374ZM622.222 684.971L664.916 690.972C689.426 694.417 712.017 677.361 715.457 652.887L789.597 125.346C793.042 100.836 775.986 78.2446 751.512 74.8051L223.972 0.664345C199.462 -2.78032 176.87 14.2761 173.431 38.7496L161.506 123.596H44.7483C19.9973 123.596 0 143.631 0 168.345V701.07C0 725.821 20.0343 745.818 44.7483 745.818H577.474C602.225 745.818 622.222 725.784 622.222 701.07V684.971ZM622.222 640.09L671.403 647.002L745.628 118.86L217.486 44.6341L206.388 123.596H577.474C602.188 123.596 622.222 143.594 622.222 168.345V640.09Z" fill="#82BED8"/>
</svg>
